<svg width="20" height="20" viewBox="0 0 20 20" fill="none" xmlns="http://www.w3.org/2000/svg">
<path d="M8.33317 9.83337C7.37484 9.83337 6.59359 9.53129 5.98942 8.92712C5.38525 8.32296 5.08317 7.54171 5.08317 6.58337C5.08317 5.62504 5.38525 4.84379 5.98942 4.23962C6.59359 3.63546 7.37484 3.33337 8.33317 3.33337C9.2915 3.33337 10.0728 3.63546 10.6769 4.23962C11.2811 4.84379 11.5832 5.62504 11.5832 6.58337C11.5832 7.54171 11.2811 8.32296 10.6769 8.92712C10.0728 9.53129 9.2915 9.83337 8.33317 9.83337ZM2.24984 16.7709C2.0415 16.7709 1.87137 16.7049 1.73942 16.573C1.60748 16.441 1.5415 16.2709 1.5415 16.0625V14.6875C1.5415 14.1598 1.67345 13.6945 1.93734 13.2917C2.20123 12.8889 2.56234 12.5764 3.02067 12.3542C4.02067 11.9098 4.95817 11.5903 5.83317 11.3959C6.70817 11.2014 7.5415 11.1042 8.33317 11.1042H8.89567C8.78456 11.2987 8.68039 11.5452 8.58317 11.8438C8.48595 12.1424 8.40956 12.4306 8.354 12.7084C8.29845 13.0556 8.27762 13.4862 8.2915 14C8.30539 14.5139 8.37484 14.9653 8.49984 15.3542C8.56928 15.6459 8.66998 15.9063 8.80192 16.1355C8.93387 16.3646 9.07623 16.5764 9.229 16.7709H2.24984ZM14.5623 15.0209C15.0484 15.0209 15.4443 14.8716 15.7498 14.573C16.0554 14.2743 16.2082 13.875 16.2082 13.375C16.2082 12.8889 16.0554 12.4966 15.7498 12.198C15.4443 11.8993 15.0484 11.75 14.5623 11.75C14.0762 11.75 13.6804 11.8993 13.3748 12.198C13.0693 12.4966 12.9165 12.8889 12.9165 13.375C12.9165 13.875 13.0693 14.2743 13.3748 14.573C13.6804 14.8716 14.0762 15.0209 14.5623 15.0209ZM13.7498 16.2292C13.5137 16.1737 13.2776 16.0799 13.0415 15.948C12.8054 15.816 12.6109 15.6667 12.4582 15.5L11.5415 15.7084C11.4721 15.7362 11.3957 15.7362 11.3123 15.7084C11.229 15.6806 11.1734 15.625 11.1457 15.5417L10.854 15.0625C10.8123 14.9931 10.7984 14.9167 10.8123 14.8334C10.8262 14.75 10.8679 14.6737 10.9373 14.6042L11.7082 13.875C11.6804 13.7639 11.6665 13.6007 11.6665 13.3855C11.6665 13.1702 11.6804 13.007 11.7082 12.8959L10.9373 12.1459C10.8679 12.0903 10.8262 12.0209 10.8123 11.9375C10.7984 11.8542 10.8123 11.7778 10.854 11.7084L11.1457 11.2084C11.1734 11.1389 11.229 11.0868 11.3123 11.0521C11.3957 11.0174 11.4721 11.0139 11.5415 11.0417L12.4582 11.25C12.6109 11.0973 12.8054 10.9549 13.0415 10.823C13.2776 10.691 13.5137 10.5903 13.7498 10.5209L13.8957 9.43754C13.9234 9.34032 13.9686 9.26393 14.0311 9.20837C14.0936 9.15282 14.1734 9.12504 14.2707 9.12504H14.8748C14.9582 9.12504 15.0311 9.15282 15.0936 9.20837C15.1561 9.26393 15.2012 9.34032 15.229 9.43754L15.3748 10.5209C15.6109 10.5903 15.8471 10.691 16.0832 10.823C16.3193 10.9549 16.5207 11.0973 16.6873 11.25L17.5832 11.0625C17.6665 11.0209 17.7464 11.0174 17.8228 11.0521C17.8991 11.0868 17.9512 11.1459 17.979 11.2292L18.2707 11.7084C18.3123 11.7778 18.3228 11.8507 18.3019 11.9271C18.2811 12.0035 18.2429 12.0764 18.1873 12.1459L17.4165 12.8959C17.4443 13.007 17.4582 13.1702 17.4582 13.3855C17.4582 13.6007 17.4443 13.7639 17.4165 13.875L18.1873 14.6042C18.2568 14.6737 18.2984 14.75 18.3123 14.8334C18.3262 14.9167 18.3123 14.9931 18.2707 15.0625L17.979 15.5417C17.9512 15.625 17.8991 15.6806 17.8228 15.7084C17.7464 15.7362 17.6665 15.7362 17.5832 15.7084L16.6873 15.5C16.5207 15.6667 16.3193 15.816 16.0832 15.948C15.8471 16.0799 15.6109 16.1737 15.3748 16.2292L15.229 17.3125C15.2012 17.4098 15.1561 17.4862 15.0936 17.5417C15.0311 17.5973 14.9582 17.625 14.8748 17.625H14.2707C14.1734 17.625 14.0936 17.5973 14.0311 17.5417C13.9686 17.4862 13.9234 17.4098 13.8957 17.3125L13.7498 16.2292Z" fill="#607D8B"/>
</svg>
