<svg width="16" height="16" viewBox="0 0 16 16" fill="none" xmlns="http://www.w3.org/2000/svg">
<path d="M9.91676 10.8167C10.0168 10.9389 10.1584 10.9973 10.3418 10.9917C10.5251 10.9862 10.6723 10.9223 10.7834 10.8C10.9279 10.6778 11.0001 10.5278 11.0001 10.35C11.0001 10.1723 10.9334 10.0223 10.8001 9.90004L8.6501 7.73337V5.06671C8.6501 4.91115 8.59454 4.77504 8.48343 4.65837C8.37232 4.54171 8.22788 4.48337 8.0501 4.48337C7.88343 4.48337 7.74176 4.54171 7.6251 4.65837C7.50843 4.77504 7.4501 4.91671 7.4501 5.08337V7.98337C7.4501 8.07226 7.46399 8.15282 7.49176 8.22504C7.51954 8.29726 7.56676 8.37226 7.63343 8.45004L9.91676 10.8167ZM8.0001 14.9C7.05565 14.9 6.16399 14.7195 5.3251 14.3584C4.48621 13.9973 3.75288 13.5028 3.1251 12.875C2.49732 12.2473 2.00288 11.5167 1.64176 10.6834C1.28065 9.85004 1.1001 8.9556 1.1001 8.00004C1.1001 7.0556 1.28065 6.16393 1.64176 5.32504C2.00288 4.48615 2.49732 3.75282 3.1251 3.12504C3.75288 2.49726 4.48621 2.00004 5.3251 1.63337C6.16399 1.26671 7.05565 1.08337 8.0001 1.08337C8.94454 1.08337 9.83621 1.26671 10.6751 1.63337C11.514 2.00004 12.2473 2.49726 12.8751 3.12504C13.5029 3.75282 14.0001 4.48615 14.3668 5.32504C14.7334 6.16393 14.9168 7.0556 14.9168 8.00004C14.9168 8.94449 14.7334 9.83615 14.3668 10.675C14.0001 11.5139 13.5029 12.2473 12.8751 12.875C12.2473 13.5028 11.5168 13.9973 10.6834 14.3584C9.8501 14.7195 8.95565 14.9 8.0001 14.9Z" fill="#90A4AE"/>
</svg>
