<svg width="12" height="12" viewBox="0 0 12 12" fill="none" xmlns="http://www.w3.org/2000/svg">
<path d="M0.345567 11.6544C0.564897 11.8732 0.822359 11.9826 1.11795 11.9826C1.41407 11.9826 1.68258 11.8732 1.92348 11.6544L6 7.54477L10.142 11.6868C10.3392 11.9061 10.5859 12.0103 10.882 11.9992C11.1776 11.9882 11.4351 11.8732 11.6544 11.6544C11.8732 11.4351 11.9826 11.1776 11.9826 10.882C11.9826 10.5859 11.8732 10.3174 11.6544 10.0765L7.54477 6L11.6868 1.85799C11.9061 1.66075 12.0103 1.41407 11.9992 1.11795C11.9882 0.822359 11.8732 0.564897 11.6544 0.345567C11.4351 0.126764 11.1776 0.0173623 10.882 0.0173623C10.5859 0.0173623 10.3282 0.126764 10.1089 0.345567L6 4.45523L1.89113 0.31322C1.6718 0.0938908 1.41407 -0.010251 1.11795 0.000794358C0.822359 0.0118397 0.564897 0.126764 0.345567 0.345567C0.126764 0.564897 0.0173623 0.822359 0.0173623 1.11795C0.0173623 1.41407 0.126764 1.6718 0.345567 1.89113L4.45523 6L0.31322 10.1089C0.0938908 10.3282 -0.010251 10.5859 0.000794358 10.882C0.0118397 11.1776 0.126764 11.4351 0.345567 11.6544Z" fill="#00AB55"/>
</svg>
