<svg width="24" height="24" viewBox="0 0 24 24" fill="none" xmlns="http://www.w3.org/2000/svg">
<path d="M12.0002 14.9748C11.8834 14.9748 11.7626 14.9498 11.6378 14.8998C11.5126 14.8498 11.4 14.7748 11.3 14.6748L6.62541 10.0002C6.45861 9.83336 6.37941 9.62496 6.38781 9.37496C6.39621 9.12496 6.47541 8.92496 6.62541 8.77496C6.80861 8.59176 7.01261 8.50436 7.23741 8.51276C7.46261 8.52076 7.66681 8.60816 7.85001 8.77496L12.0002 12.9498L16.175 8.77496C16.3418 8.62496 16.546 8.54156 16.7876 8.52476C17.0292 8.50836 17.2334 8.59176 17.4002 8.77496C17.567 8.94176 17.6462 9.14596 17.6378 9.38756C17.6294 9.62916 17.5502 9.82496 17.4002 9.97496L12.7004 14.6748C12.6004 14.7748 12.492 14.8498 12.3752 14.8998C12.2584 14.9498 12.1334 14.9748 12.0002 14.9748Z" fill="#607D8B"/>
</svg>
