<svg width="12" height="12" viewBox="0 0 12 12" fill="none" xmlns="http://www.w3.org/2000/svg">
<path d="M6 0.3125C2.86395 0.3125 0.3125 2.86395 0.3125 6C0.3125 9.13605 2.86395 11.6875 6 11.6875C9.13605 11.6875 11.6875 9.13605 11.6875 6C11.6875 2.86395 9.13605 0.3125 6 0.3125ZM6 9.06004C5.89184 9.06004 5.78611 9.02797 5.69617 8.96787C5.60624 8.90778 5.53615 8.82237 5.49475 8.72244C5.45336 8.62252 5.44253 8.51256 5.46363 8.40647C5.48473 8.30039 5.53682 8.20295 5.6133 8.12646C5.68978 8.04998 5.78723 7.9979 5.89331 7.9768C5.99939 7.9557 6.10935 7.96653 6.20928 8.00792C6.30921 8.04931 6.39462 8.1194 6.45471 8.20934C6.5148 8.29927 6.54688 8.405 6.54688 8.51316C6.54688 8.6582 6.48926 8.7973 6.3867 8.89986C6.28414 9.00242 6.14504 9.06004 6 9.06004ZM6.59391 3.55984L6.43695 6.89578C6.43695 7.01181 6.39086 7.12309 6.30881 7.20514C6.22677 7.28719 6.11549 7.33328 5.99945 7.33328C5.88342 7.33328 5.77214 7.28719 5.69009 7.20514C5.60805 7.12309 5.56195 7.01181 5.56195 6.89578L5.405 3.56148V3.56012C5.40156 3.47998 5.41437 3.39998 5.44267 3.32492C5.47097 3.24987 5.51416 3.18132 5.56965 3.12339C5.62513 3.06547 5.69177 3.01938 5.76554 2.98789C5.83931 2.9564 5.9187 2.94017 5.99891 2.94017C6.07912 2.94017 6.1585 2.9564 6.23227 2.98789C6.30604 3.01938 6.37268 3.06547 6.42817 3.12339C6.48365 3.18132 6.52685 3.24987 6.55514 3.32492C6.58344 3.39998 6.59625 3.47998 6.59281 3.56012L6.59391 3.55984Z" fill="#D32F2F"/>
</svg>
