<svg width="18" height="18" viewBox="0 0 18 18" fill="none" xmlns="http://www.w3.org/2000/svg">
<g clip-path="url(#clip0_1842_76467)">
<path d="M9 4.87672C11.07 4.87672 12.75 6.55672 12.75 8.62672C12.75 9.00922 12.675 9.37672 12.57 9.72172L14.865 12.0167C15.9075 11.0942 16.7325 9.93922 17.25 8.61922C15.9525 5.33422 12.75 3.00172 9 3.00172C8.0475 3.00172 7.1325 3.15172 6.27 3.42922L7.8975 5.05672C8.25 4.95172 8.6175 4.87672 9 4.87672ZM2.0325 2.37172C1.74 2.66422 1.74 3.13672 2.0325 3.42922L3.51 4.90672C2.295 5.87422 1.3275 7.14922 0.75 8.62672C2.0475 11.9192 5.25 14.2517 9 14.2517C10.14 14.2517 11.2275 14.0267 12.2325 13.6367L14.2725 15.6767C14.565 15.9692 15.0375 15.9692 15.33 15.6767C15.6225 15.3842 15.6225 14.9117 15.33 14.6192L3.0975 2.37172C2.805 2.07922 2.325 2.07922 2.0325 2.37172ZM9 12.3767C6.93 12.3767 5.25 10.6967 5.25 8.62672C5.25 8.04922 5.385 7.50172 5.6175 7.02172L6.795 8.19922C6.7725 8.33422 6.75 8.47672 6.75 8.62672C6.75 9.87172 7.755 10.8767 9 10.8767C9.15 10.8767 9.285 10.8542 9.4275 10.8242L10.605 12.0017C10.1175 12.2417 9.5775 12.3767 9 12.3767ZM11.2275 8.37922C11.115 7.32922 10.29 6.51172 9.2475 6.39922L11.2275 8.37922Z" fill="#B0BEC5"/>
</g>
<defs>
<clipPath id="clip0_1842_76467">
<rect width="18" height="18" fill="white"/>
</clipPath>
</defs>
</svg>
