<svg width="20" height="20" viewBox="0 0 20 20" fill="none" xmlns="http://www.w3.org/2000/svg">
<path d="M13.375 13.3125C13.2361 13.1736 13.1667 13.0035 13.1667 12.8021C13.1667 12.6007 13.2361 12.4306 13.375 12.2917L14.9583 10.7083H8.45833C8.26389 10.7083 8.09722 10.6389 7.95833 10.5C7.81944 10.3611 7.75 10.1944 7.75 10C7.75 9.79167 7.81944 9.62153 7.95833 9.48958C8.09722 9.35764 8.26389 9.29167 8.45833 9.29167H14.9167L13.3125 7.6875C13.1875 7.5625 13.125 7.40278 13.125 7.20833C13.125 7.01389 13.1944 6.84028 13.3333 6.6875C13.4722 6.54861 13.6424 6.47917 13.8438 6.47917C14.0451 6.47917 14.2153 6.54861 14.3542 6.6875L17.1875 9.52083C17.2569 9.60417 17.309 9.6875 17.3438 9.77083C17.3785 9.85417 17.3958 9.9375 17.3958 10.0208C17.3958 10.1181 17.3785 10.2049 17.3438 10.2812C17.309 10.3576 17.2569 10.4375 17.1875 10.5208L14.375 13.3333C14.25 13.4583 14.0903 13.5208 13.8958 13.5208C13.7014 13.5208 13.5278 13.4514 13.375 13.3125ZM3.75 17.625C3.36111 17.625 3.02431 17.4826 2.73958 17.1979C2.45486 16.9132 2.3125 16.5833 2.3125 16.2083V3.79167C2.3125 3.40278 2.45486 3.06944 2.73958 2.79167C3.02431 2.51389 3.36111 2.375 3.75 2.375H9.125C9.33333 2.375 9.50347 2.44444 9.63542 2.58333C9.76736 2.72222 9.83333 2.88889 9.83333 3.08333C9.83333 3.29167 9.76736 3.46181 9.63542 3.59375C9.50347 3.72569 9.33333 3.79167 9.125 3.79167H3.75V16.2083H9.125C9.33333 16.2083 9.50347 16.2778 9.63542 16.4167C9.76736 16.5556 9.83333 16.7222 9.83333 16.9167C9.83333 17.125 9.76736 17.2951 9.63542 17.4271C9.50347 17.559 9.33333 17.625 9.125 17.625H3.75Z" fill="#607D8B"/>
</svg>
