<svg width="20" height="20" viewBox="0 0 20 20" fill="none" xmlns="http://www.w3.org/2000/svg">
<path d="M3.66683 16.0834C3.41683 16.0834 3.21544 16.007 3.06266 15.8542C2.90988 15.7014 2.8335 15.507 2.8335 15.2709C2.8335 15.0209 2.90988 14.8195 3.06266 14.6667C3.21544 14.5139 3.41683 14.4375 3.66683 14.4375H4.68766V8.37504C4.68766 7.16671 5.0453 6.06601 5.76058 5.07296C6.47586 4.0799 7.43072 3.45143 8.62516 3.18754V2.64587C8.62516 2.25699 8.76058 1.94101 9.03141 1.69796C9.30225 1.4549 9.62516 1.33337 10.0002 1.33337C10.3752 1.33337 10.6981 1.4549 10.9689 1.69796C11.2397 1.94101 11.3752 2.25699 11.3752 2.64587V3.18754C12.5696 3.45143 13.5314 4.0799 14.2606 5.07296C14.9897 6.06601 15.3543 7.16671 15.3543 8.37504V14.4375H16.3543C16.5904 14.4375 16.7884 14.5139 16.9481 14.6667C17.1078 14.8195 17.1877 15.0209 17.1877 15.2709C17.1877 15.507 17.1078 15.7014 16.9481 15.8542C16.7884 16.007 16.5904 16.0834 16.3543 16.0834H3.66683ZM10.0002 18.625C9.52794 18.625 9.11475 18.4549 8.76058 18.1146C8.40641 17.7743 8.22933 17.3612 8.22933 16.875H11.771C11.771 17.3612 11.5974 17.7743 11.2502 18.1146C10.9029 18.4549 10.4863 18.625 10.0002 18.625Z" fill="#00AB55"/>
</svg>
