<svg width="24" height="24" viewBox="0 0 24 24" fill="none" xmlns="http://www.w3.org/2000/svg">
<path d="M8.42524 22.226C8.19164 22.226 7.98744 22.1468 7.81264 21.9884C7.63744 21.83 7.53324 21.6258 7.50004 21.3758L7.32484 19.8758C7.14164 19.8426 6.95424 19.78 6.76264 19.688C6.57104 19.5964 6.40844 19.484 6.27484 19.3508L4.97524 19.901C4.75844 20.0174 4.54164 20.034 4.32484 19.9508C4.10844 19.8676 3.93344 19.726 3.79984 19.526L2.22484 16.901C2.09164 16.6842 2.05424 16.455 2.11264 16.2134C2.17104 15.9718 2.30024 15.7842 2.50024 15.6506L3.70024 14.8256C3.65024 14.6092 3.62524 14.4176 3.62524 14.2508C3.62524 14.084 3.65024 13.9006 3.70024 13.7006L2.50024 12.8756C2.30024 12.7256 2.17104 12.534 2.11264 12.3008C2.05424 12.0676 2.09164 11.8342 2.22484 11.6006L3.79984 9.00078C3.93344 8.80078 4.10844 8.65918 4.32484 8.57598C4.54164 8.49238 4.75844 8.50058 4.97524 8.60058L6.27484 9.15078C6.40844 9.03398 6.57104 8.92978 6.76264 8.83818C6.95424 8.74658 7.14164 8.68418 7.32484 8.65098L7.50004 7.12578C7.53324 6.89258 7.63744 6.69678 7.81264 6.53838C7.98744 6.37998 8.19164 6.30078 8.42524 6.30078H11.5002C11.7334 6.30078 11.9376 6.37998 12.1128 6.53838C12.2876 6.69678 12.3916 6.89258 12.4248 7.12578L12.6 8.65098C12.7832 8.68418 12.9708 8.74658 13.1628 8.83818C13.3544 8.92978 13.5168 9.03398 13.65 9.15078L14.9502 8.60058C15.1502 8.50058 15.3626 8.49238 15.5874 8.57598C15.8126 8.65918 15.9918 8.80078 16.125 9.00078L17.7 11.6006C17.8332 11.8342 17.8708 12.0676 17.8128 12.3008C17.7544 12.534 17.6252 12.7256 17.4252 12.8756L16.2252 13.7006C16.2752 13.9006 16.3002 14.084 16.3002 14.2508C16.3002 14.4176 16.2752 14.6092 16.2252 14.8256L17.4252 15.6506C17.6252 15.7842 17.7544 15.9718 17.8128 16.2134C17.8708 16.455 17.8332 16.6842 17.7 16.901L16.125 19.526C15.9918 19.726 15.8126 19.8676 15.5874 19.9508C15.3626 20.034 15.1502 20.0174 14.9502 19.901L13.65 19.3508C13.5168 19.484 13.3544 19.5964 13.1628 19.688C12.9708 19.78 12.7832 19.8426 12.6 19.8758L12.4248 21.3758C12.3916 21.6258 12.2876 21.83 12.1128 21.9884C11.9376 22.1468 11.7334 22.226 11.5002 22.226H8.42524ZM9.94984 17.2256C10.7998 17.2256 11.5082 16.9424 12.075 16.376C12.6418 15.8092 12.9252 15.1008 12.9252 14.2508C12.9252 13.4176 12.6418 12.7176 12.075 12.1508C11.5082 11.584 10.7998 11.3006 9.94984 11.3006C9.11664 11.3006 8.41664 11.584 7.84984 12.1508C7.28344 12.7176 7.00024 13.4176 7.00024 14.2508C7.00024 15.1008 7.28344 15.8092 7.84984 16.376C8.41664 16.9424 9.11664 17.2256 9.94984 17.2256ZM9.94984 15.551C9.58344 15.551 9.27924 15.43 9.03724 15.188C8.79564 14.9464 8.67484 14.634 8.67484 14.2508C8.67484 13.884 8.79564 13.5756 9.03724 13.3256C9.27924 13.0756 9.58344 12.9506 9.94984 12.9506C10.3334 12.9506 10.646 13.0756 10.8876 13.3256C11.1292 13.5756 11.25 13.884 11.25 14.2508C11.25 14.634 11.1292 14.9464 10.8876 15.188C10.646 15.43 10.3334 15.551 9.94984 15.551ZM9.15004 20.4008H10.7748L10.9752 18.551C11.4584 18.4174 11.8916 18.2464 12.2748 18.038C12.6584 17.83 13.0168 17.551 13.35 17.201L14.9748 17.9258L15.75 16.6508L14.25 15.551C14.4168 15.1342 14.5002 14.7008 14.5002 14.2508C14.5002 13.8008 14.4168 13.3758 14.25 12.9758L15.75 11.876L14.9748 10.601L13.35 11.3258C13.0168 10.9758 12.6584 10.6924 12.2748 10.4756C11.8916 10.2592 11.4584 10.0926 10.9752 9.97578L10.7748 8.10078H9.15004L8.95024 9.97578C8.46664 10.0926 8.03324 10.2592 7.65004 10.4756C7.26684 10.6924 6.90844 10.9758 6.57484 11.3258L4.95004 10.601L4.15024 11.876L5.67484 12.9758C5.50844 13.3758 5.42524 13.8008 5.42524 14.2508C5.42524 14.7008 5.50844 15.1342 5.67484 15.551L4.15024 16.6508L4.95004 17.9258L6.57484 17.201C6.90844 17.551 7.26684 17.83 7.65004 18.038C8.03324 18.2464 8.46664 18.4174 8.95024 18.551L9.15004 20.4008Z" fill="#00AB55"/>
<path d="M19.07 7.92688C19.1846 8.04156 19.326 8.1 19.4883 8.1C19.6505 8.1 19.793 8.04169 19.9111 7.9283C20.0327 7.81163 20.0917 7.66074 20.0917 7.48459V5.10343H22.4849C22.6547 5.10343 22.8021 5.04333 22.9212 4.92431C23.039 4.8065 23.1003 4.66352 23.1003 4.5C23.1003 4.33012 23.0401 4.18383 22.9197 4.06827C22.8004 3.95375 22.6534 3.89658 22.4849 3.89658H20.0917V1.49144C20.0917 1.32778 20.0302 1.18603 19.9111 1.0717C19.793 0.958313 19.6505 0.9 19.4883 0.9C19.326 0.9 19.1846 0.958444 19.07 1.07312C18.9553 1.18781 18.8968 1.32912 18.8968 1.49144V3.89658H16.4917C16.3295 3.89658 16.187 3.95489 16.0689 4.06827C15.9485 4.18383 15.8883 4.33012 15.8883 4.5C15.8883 4.66352 15.9496 4.8065 16.0674 4.92431C16.1852 5.04211 16.3282 5.10343 16.4917 5.10343H18.8968V7.48459C18.8968 7.65947 18.953 7.80991 19.07 7.92688Z" fill="#00AB55" stroke="#00AB55" stroke-width="0.2"/>
</svg>
